<?xml version="1.0" encoding="utf-8"?>
<!-- Generator: Adobe Illustrator 26.0.1, SVG Export Plug-In . SVG Version: 6.00 Build 0)  -->
<svg version="1.1" baseProfile="basic"
	 id="Layer_1" sodipodi:docname="Arcade Button with LED_schem.svg" xmlns:cc="http://creativecommons.org/ns#" xmlns:dc="http://purl.org/dc/elements/1.1/" xmlns:inkscape="http://www.inkscape.org/namespaces/inkscape" xmlns:rdf="http://www.w3.org/1999/02/22-rdf-syntax-ns#" xmlns:sodipodi="http://sodipodi.sourceforge.net/DTD/sodipodi-0.dtd" xmlns:svg="http://www.w3.org/2000/svg"
	 xmlns="http://www.w3.org/2000/svg" xmlns:xlink="http://www.w3.org/1999/xlink" x="0px" y="0px" width="39.2px" height="76.3px"
	 viewBox="0 0 39.2 76.3" xml:space="preserve">
<style type="text/css">
	.st0{fill:#FFFFFF;stroke:#000000;stroke-width:1.0133;stroke-linecap:round;}
	.st1{fill:none;stroke:#555555;stroke-width:0.56;stroke-linecap:round;stroke-linejoin:round;}
	.st2{fill:#555555;}
	.st3{font-family:'ArialMT';}
	.st4{font-size:6.4811px;}
	.st5{font-size:7.4666px;}
	.st6{fill:#FFFFFF;stroke:#000000;stroke-width:0.3283;stroke-linecap:round;}
</style>
<sodipodi:namedview  bordercolor="#666666" borderopacity="1" gridtolerance="10" guidetolerance="10" id="namedview3695" inkscape:current-layer="Layer_1" inkscape:cx="31.577102" inkscape:cy="34.878593" inkscape:pageopacity="0" inkscape:pageshadow="2" inkscape:window-height="1648" inkscape:window-maximized="0" inkscape:window-width="2469" inkscape:window-x="740" inkscape:window-y="226" inkscape:zoom="11.880733" objecttolerance="10" pagecolor="#ffffff" showgrid="false">
	</sodipodi:namedview>
<g id="g4307">
	<rect id="part_symbol" x="7" y="7.4" class="st0" width="25.4" height="52.4"/>
	<line id="connector1pin" class="st1" x1="19.2" y1="65.6" x2="19.2" y2="59.8"/>
	<line id="connector0pin" class="st1" x1="13.4" y1="65.6" x2="13.4" y2="59.8"/>
	<line id="connector3pin" class="st1" x1="30.7" y1="65.6" x2="30.7" y2="59.8"/>
	<line id="connector2pin" class="st1" x1="24.9" y1="65.6" x2="24.9" y2="59.8"/>
	<text id="tspan4823" transform="matrix(6.123234e-17 1 -1 6.123234e-17 31.2852 60.8907)" class="st2 st3 st4">LED+</text>
	<text id="tspan4821" transform="matrix(6.123234e-17 1 -1 6.123234e-17 25.4141 60.8907)" class="st2 st3 st4">LED-</text>
	<text id="tspan4819" transform="matrix(6.123234e-17 1 -1 6.123234e-17 19.7383 60.891)" class="st2 st3 st4">GND</text>
	<text id="tspan4815" transform="matrix(6.123234e-17 1 -1 6.123234e-17 13.9863 60.891)" class="st2 st3 st4">NO</text>
	
		<line id="connector0pin_00000010302369014389573600000018035276918863440317_" class="st1" x1="7.6" y1="65.6" x2="7.6" y2="59.8"/>
	
		<text id="tspan4815_00000043433036689777695290000000812861708010043315_" transform="matrix(6.123234e-17 1 -1 6.123234e-17 8.1504 60.891)" class="st2 st3 st4">NC</text>
	<text id="tspan3732" transform="matrix(6.123234e-17 -1 1 6.123234e-17 22.3377 57.2834)" class="st3 st5">LED BUTTON</text>
	<rect id="part_symbol-7" x="9.2" y="0.2" class="st6" width="21" height="6.7"/>
</g>
</svg>
